<svg xmlns="http://www.w3.org/2000/svg" width="100%" height="100%" viewBox="-5 -5 110 110">
    <g transform="translate(0,0)">
        <g stroke="#000" stroke-width="0.5" fill="transparent">
            <path d="M 6.698729811 25 L 93.30127019 25 L 50 100 Z"/>
            <path d="M 6.698729811 75 L 93.30127019 75 L 50 0 Z"/>
        </g>
        <g fill="transparent" stroke-width="0.5" stroke="#000">
            <circle cx="50" cy="50" r="50"/>
            <circle cx="50" cy="50" r="25"/>
            <circle cx="50" cy="50" r="52"/>
        </g>
        <g stroke-width="0.5" stroke="#000">
            <path d="M 50 0 L 50 100"/>
            <path d="M 6.698729811 25 L 93.30127019 75"/>
            <path d="M 93.30127019 25 L 6.698729811 75"/>
        </g>
        <g fill="transparent" stroke="#000" stroke-width="0.5">
            <path d="M 29.77143 6.4972 A 48 48 0 0 1 70.2857 6.4972 L 50 18.175 Z" transform="rotate(30,50,50)"/>
            <path d="M 29.77143 6.4972 A 48 48 0 0 1 70.2857 6.4972 L 50 18.175 Z" transform="rotate(90,50,50)"/>
            <path d="M 29.77143 6.4972 A 48 48 0 0 1 70.2857 6.4972 L 50 18.175 Z" transform="rotate(150,50,50)"/>
            <path d="M 29.77143 6.4972 A 48 48 0 0 1 70.2857 6.4972 L 50 18.175 Z" transform="rotate(210,50,50)"/>
            <path d="M 29.77143 6.4972 A 48 48 0 0 1 70.2857 6.4972 L 50 18.175 Z" transform="rotate(270,50,50)"/>
            <path d="M 29.77143 6.4972 A 48 48 0 0 1 70.2857 6.4972 L 50 18.175 Z" transform="rotate(330,50,50)"/>
        </g>
    </g>
</svg>